<?xml version="1.0" encoding="UTF-8" standalone="no"?>
<!-- Created with Inkscape (http://www.inkscape.org/) -->

<svg
   width="32"
   height="32"
   viewBox="0 0 32 32"
   version="1.1"
   id="svg1"
   xml:space="preserve"
   inkscape:version="1.4.2 (f4327f4, 2025-05-13)"
   sodipodi:docname="botao_save.svg"
   xmlns:inkscape="http://www.inkscape.org/namespaces/inkscape"
   xmlns:sodipodi="http://sodipodi.sourceforge.net/DTD/sodipodi-0.dtd"
   xmlns:xlink="http://www.w3.org/1999/xlink"
   xmlns="http://www.w3.org/2000/svg"
   xmlns:svg="http://www.w3.org/2000/svg"><sodipodi:namedview
     id="namedview1"
     pagecolor="#505050"
     bordercolor="#eeeeee"
     borderopacity="1"
     inkscape:showpageshadow="0"
     inkscape:pageopacity="0"
     inkscape:pagecheckerboard="0"
     inkscape:deskcolor="#505050"
     inkscape:document-units="px"
     inkscape:zoom="18.163805"
     inkscape:cx="13.791163"
     inkscape:cy="16.130981"
     inkscape:window-width="1920"
     inkscape:window-height="1017"
     inkscape:window-x="1432"
     inkscape:window-y="-8"
     inkscape:window-maximized="1"
     inkscape:current-layer="layer1" /><defs
     id="defs1"><linearGradient
       id="linearGradient3"
       inkscape:collect="always"><stop
         style="stop-color:#767676;stop-opacity:1;"
         offset="0"
         id="stop3" /><stop
         style="stop-color:#393939;stop-opacity:1;"
         offset="1"
         id="stop4" /></linearGradient><style
       id="style1">.cls-1{fill:none;stroke:#020202;stroke-miterlimit:10;stroke-width:1.91px;}</style><linearGradient
       inkscape:collect="always"
       xlink:href="#linearGradient3"
       id="linearGradient4"
       x1="16"
       y1="3.4102592"
       x2="16"
       y2="29.402447"
       gradientUnits="userSpaceOnUse" /></defs><g
     inkscape:label="Layer 1"
     inkscape:groupmode="layer"
     id="layer1"><path
       id="path6"
       style="fill:none;fill-opacity:1;stroke:#ffffff;stroke-width:1.76298;stroke-miterlimit:10;stroke-dasharray:none;stroke-opacity:1"
       class="cls-1"
       d="m 12.249276,24.760436 h 7.50145 M 8.4854347,19.750726 H 23.501451 V 29.770147 H 8.4854347 Z M 9.7444196,2.2298529 H 22.268696 v 6.25558 A 1.3114425,1.3114425 0 0 1 20.957251,9.796877 H 10.99029 A 1.3114425,1.3114425 0 0 1 9.6788469,8.4854329 v -6.25558 z M 29.770146,29.770147 H 2.2298538 V 2.2298529 H 24.760435 l 5.009711,5.0097118 z" /><path
       id="rect1"
       style="fill:url(#linearGradient4);fill-opacity:1;stroke-width:2.96474;stroke-dasharray:none"
       d="M 22.269531,3.5917969 21.558193,9.7785876 10.946108,10.101562 9.6135783,8.0899471 9.2336313,3.4648896 H 3.7196152 l -0.3028,6.6366724 -0.4129091,9.402344 v 9.493088 l 5.2422538,0.350822 v -9.807682 h 0.6611954 l 14.5087917,-0.02616 v 9.48302 l 4.751086,-0.269106 0.828861,-9.223977 v -8.4375 -0.964844 -2.0781245 L 24.892578,3.6269531 Z"
       sodipodi:nodetypes="ccccccccccccccccccccc" /><rect
       style="fill:#ffffff;fill-opacity:1;stroke-width:2.15437;stroke-dasharray:none"
       id="rect5"
       width="14.185291"
       height="9.4568596"
       x="8.9073553"
       y="19.540134" /><rect
       style="fill:#ffffff;fill-opacity:1;stroke-width:1.61429;stroke-dasharray:none"
       id="rect4"
       width="11.116392"
       height="6.775547"
       x="10.441804"
       y="3.003006" /><rect
       style="fill:#121212;fill-opacity:1;stroke-width:1.04452;stroke-dasharray:none"
       id="rect6"
       width="4.6541052"
       height="6.775547"
       x="16.904091"
       y="3.003006" /><path
       id="line2"
       style="fill:none;fill-opacity:1;stroke:#020202;stroke-width:1.664;stroke-miterlimit:10;stroke-dasharray:none"
       class="cls-1"
       d="m 12.459868,24.268564 h 7.080266 M 8.9073553,19.540134 H 23.080266 v 9.45686 H 8.9073553 Z M 10.095652,3.003006 H 21.916727 V 8.9073536 A 1.2378089,1.2378089 0 0 1 20.678916,10.145164 H 11.27157 A 1.2378089,1.2378089 0 0 1 10.033761,8.9073536 V 3.003006 Z M 28.996993,28.996994 H 3.0030068 V 3.003006 H 24.268563 l 4.72843,4.7284312 z" /></g></svg>
