<?xml version="1.0" encoding="UTF-8" standalone="no"?>
<!-- Created with Inkscape (http://www.inkscape.org/) -->

<svg
   width="32"
   height="32"
   viewBox="0 0 32 32"
   version="1.1"
   id="svg1"
   inkscape:version="1.4.2 (f4327f4, 2025-05-13)"
   sodipodi:docname="icone_adicionar.svg"
   xmlns:inkscape="http://www.inkscape.org/namespaces/inkscape"
   xmlns:sodipodi="http://sodipodi.sourceforge.net/DTD/sodipodi-0.dtd"
   xmlns:xlink="http://www.w3.org/1999/xlink"
   xmlns="http://www.w3.org/2000/svg"
   xmlns:svg="http://www.w3.org/2000/svg">
  <sodipodi:namedview
     id="namedview1"
     pagecolor="#505050"
     bordercolor="#eeeeee"
     borderopacity="1"
     inkscape:showpageshadow="0"
     inkscape:pageopacity="0"
     inkscape:pagecheckerboard="0"
     inkscape:deskcolor="#505050"
     inkscape:document-units="px"
     inkscape:zoom="9.0819027"
     inkscape:cx="23.948726"
     inkscape:cy="27.086835"
     inkscape:window-width="1920"
     inkscape:window-height="1017"
     inkscape:window-x="1432"
     inkscape:window-y="-8"
     inkscape:window-maximized="1"
     inkscape:current-layer="layer1" />
  <defs
     id="defs1">
    <linearGradient
       id="linearGradient2"
       inkscape:collect="always">
      <stop
         style="stop-color:#31ff20;stop-opacity:1;"
         offset="0"
         id="stop2" />
      <stop
         style="stop-color:#29c805;stop-opacity:1;"
         offset="0.5"
         id="stop4" />
      <stop
         style="stop-color:#135d03;stop-opacity:1;"
         offset="1"
         id="stop3" />
    </linearGradient>
    <linearGradient
       inkscape:collect="always"
       xlink:href="#linearGradient2"
       id="linearGradient3"
       x1="16"
       y1="3.3671875"
       x2="16"
       y2="28.632812"
       gradientUnits="userSpaceOnUse" />
  </defs>
  <g
     inkscape:label="Layer 1"
     inkscape:groupmode="layer"
     id="layer1">
    <path
       id="rect1"
       style="fill:url(#linearGradient3);fill-opacity:1;stroke:#ffffff;stroke-width:1.25717;stroke-opacity:1"
       d="m 14.916016,3.3671878 c -1.143046,0 -2.064454,0.9194539 -2.064454,2.0625 V 12.851562 H 5.4296879 c -1.1430461,0 -2.0625,0.921408 -2.0625,2.064454 v 2.167968 c 0,1.143046 0.9194539,2.064454 2.0625,2.064454 h 7.4218741 v 7.421874 c 0,1.143047 0.921408,2.0625 2.064454,2.0625 h 2.167968 c 1.143046,10e-7 2.064454,-0.919453 2.064454,-2.0625 v -7.421874 h 7.421874 c 1.143047,0 2.0625,-0.921408 2.0625,-2.064454 v -2.167968 c 10e-7,-1.143046 -0.919453,-2.064454 -2.0625,-2.064454 H 19.148438 V 5.4296878 c 0,-1.1430461 -0.921408,-2.0625 -2.064454,-2.0625 z" />
  </g>
</svg>
