<?xml version="1.0" encoding="UTF-8" standalone="no"?>
<!-- Created with Inkscape (http://www.inkscape.org/) -->

<svg
   width="32"
   height="32"
   viewBox="0 0 32 32"
   version="1.1"
   id="svg1"
   inkscape:version="1.4.2 (f4327f4, 2025-05-13)"
   sodipodi:docname="icone_cancelar.svg"
   xmlns:inkscape="http://www.inkscape.org/namespaces/inkscape"
   xmlns:sodipodi="http://sodipodi.sourceforge.net/DTD/sodipodi-0.dtd"
   xmlns:xlink="http://www.w3.org/1999/xlink"
   xmlns="http://www.w3.org/2000/svg"
   xmlns:svg="http://www.w3.org/2000/svg">
  <sodipodi:namedview
     id="namedview1"
     pagecolor="#505050"
     bordercolor="#eeeeee"
     borderopacity="1"
     inkscape:showpageshadow="0"
     inkscape:pageopacity="0"
     inkscape:pagecheckerboard="0"
     inkscape:deskcolor="#505050"
     inkscape:document-units="px"
     inkscape:zoom="18.163805"
     inkscape:cx="18.085418"
     inkscape:cy="18.773599"
     inkscape:window-width="1920"
     inkscape:window-height="1017"
     inkscape:window-x="1432"
     inkscape:window-y="-8"
     inkscape:window-maximized="1"
     inkscape:current-layer="layer1" />
  <defs
     id="defs1">
    <linearGradient
       id="linearGradient1"
       inkscape:collect="always">
      <stop
         style="stop-color:#f97676;stop-opacity:1;"
         offset="0.06799335"
         id="stop1" />
      <stop
         style="stop-color:#dd0f2e;stop-opacity:1;"
         offset="0.43698177"
         id="stop3" />
      <stop
         style="stop-color:#87091e;stop-opacity:1;"
         offset="0.77777779"
         id="stop2" />
    </linearGradient>
    <linearGradient
       inkscape:collect="always"
       xlink:href="#linearGradient1"
       id="linearGradient2"
       x1="7.8003974"
       y1="7.8003974"
       x2="24.199602"
       y2="24.199602"
       gradientUnits="userSpaceOnUse"
       gradientTransform="matrix(0.66507628,0.66507628,-0.58056823,0.58056823,14.647873,-3.9286227)" />
  </defs>
  <g
     inkscape:label="Layer 1"
     inkscape:groupmode="layer"
     id="layer1">
    <path
       id="rect1"
       style="fill:url(#linearGradient2);stroke:#ffffff;stroke-width:0.522;stroke-dasharray:none;stroke-opacity:1"
       d="m 10.75,7.7848944 c -0.527409,-5e-7 -1.0548565,0.2032938 -1.4589844,0.6074216 L 8.390625,9.2927066 c -0.8082556,0.8082554 -0.8082559,2.1097124 -3e-7,2.9179684 l 3.7910153,3.791016 -3.7910151,3.791015 c -0.8082557,0.808256 -0.8082552,2.109714 3e-7,2.91797 l 0.9003902,0.90039 c 0.8082556,0.808255 2.1097136,0.808256 2.9179696,0 L 16,19.820051 l 3.791016,3.791015 c 0.808256,0.808256 2.109713,0.808256 2.917968,0 l 0.900391,-0.900391 c 0.808256,-0.808255 0.808256,-2.109712 0,-2.917968 l -3.791015,-3.791016 3.791015,-3.791015 c 0.808256,-0.808256 0.808255,-2.109714 0,-2.9179696 l -0.90039,-0.9003902 c -0.808256,-0.8082555 -2.109714,-0.808256 -2.91797,-3e-7 L 16,12.183331 12.208984,8.3923157 C 11.804856,7.9881879 11.277409,7.7848943 10.75,7.7848944 Z" />
  </g>
</svg>
