<?xml version="1.0" encoding="UTF-8" standalone="no"?>
<!-- Created with Inkscape (http://www.inkscape.org/) -->

<svg
   width="32"
   height="32"
   viewBox="0 0 32 32"
   version="1.1"
   id="svg1"
   xml:space="preserve"
   inkscape:version="1.4.2 (f4327f4, 2025-05-13)"
   sodipodi:docname="icone_exportar.svg"
   xmlns:inkscape="http://www.inkscape.org/namespaces/inkscape"
   xmlns:sodipodi="http://sodipodi.sourceforge.net/DTD/sodipodi-0.dtd"
   xmlns="http://www.w3.org/2000/svg"
   xmlns:svg="http://www.w3.org/2000/svg"><sodipodi:namedview
     id="namedview1"
     pagecolor="#505050"
     bordercolor="#eeeeee"
     borderopacity="1"
     inkscape:showpageshadow="0"
     inkscape:pageopacity="0"
     inkscape:pagecheckerboard="0"
     inkscape:deskcolor="#505050"
     inkscape:document-units="px"
     inkscape:zoom="18.163805"
     inkscape:cx="15.112472"
     inkscape:cy="22.847635"
     inkscape:window-width="1920"
     inkscape:window-height="1017"
     inkscape:window-x="1432"
     inkscape:window-y="-8"
     inkscape:window-maximized="1"
     inkscape:current-layer="g7" /><defs
     id="defs1" /><g
     inkscape:label="Layer 1"
     inkscape:groupmode="layer"
     id="layer1"><g
       id="g7"
       transform="matrix(0.83662044,0,0,0.83662044,0.83707139,1.1205746)"
       style="display:inline"><path
         id="rect1"
         style="display:inline;fill:#ffffff;stroke-width:0.765;stroke-linecap:round;stroke-linejoin:round"
         d="m 8.5605469,5.421875 v 21.173828 h 8.8164061 a 5.832427,5.832427 0 0 1 -0.06641,-0.875 5.832427,5.832427 0 0 1 5.832031,-5.832031 5.832427,5.832427 0 0 1 1.029297,0.0918 V 11.884766 L 18.638672,5.421875 Z" /><path
         id="path5"
         style="baseline-shift:baseline;display:inline;overflow:visible;opacity:1;vector-effect:none;fill:#ffffff;paint-order:stroke markers fill;enable-background:accumulate;stop-color:#000000;stop-opacity:1"
         d="m 4.0006927,-0.60396657 c -0.4339637,0 -0.8545036,0.15729701 -1.1512949,0.45408838 C 2.5526064,0.14691317 2.3973186,0.5654438 2.3973186,0.99940746 V 23.000592 c 0,0.433964 0.1552878,0.852494 0.4520792,1.149286 0.2967913,0.296791 0.7173312,0.454088 1.1512949,0.454088 H 13.594817 A 5.9999997,5.9999997 0 0 1 13.164839,23.396413 H 4.0006927 c -0.1660363,0 -0.2461683,-0.04524 -0.2993769,-0.09845 -0.053209,-0.05321 -0.098453,-0.131332 -0.098453,-0.297368 V 0.99940746 c 0,-0.16603634 0.045245,-0.24415898 0.098453,-0.29736762 0.053209,-0.0532086 0.1333406,-0.0984528 0.2993769,-0.0984528 h 9.9999903 c 0.166036,0 0.144301,-0.006391 0.273257,0.12256368 l 5.999593,5.99959258 c 0.128956,0.128955 0.122563,0.1072204 0.122563,0.2732567 v 9.166156 a 5.9999997,5.9999997 0 0 1 1.207554,0.429977 V 6.999 c 0,-0.4339637 -0.205145,-0.8541299 -0.47619,-1.1251748 l -5.999593,-6.00160174 c -0.271045,-0.27104497 -0.69322,-0.47619003 -1.127184,-0.47619003 z M 4.3965131,1.3972371 V 22.602763 H 13.03022 a 5.9999997,5.9999997 0 0 1 -0.03014,-0.602772 5.9999997,5.9999997 0 0 1 0.03014,-0.602773 H 5.6040667 V 2.6027815 h 7.7456223 l 5.047213,5.0472125 v 8.380543 a 5.9999997,5.9999997 0 0 1 0.602772,-0.03014 5.9999997,5.9999997 0 0 1 0.604781,0.03014 V 7.1496931 L 13.84999,1.3972371 Z"
         transform="matrix(0.97207122,0,0,0.97207122,4.6735418,4.3351454)" /><path
         id="path6"
         style="baseline-shift:baseline;display:inline;overflow:visible;opacity:1;vector-effect:none;paint-order:stroke markers fill;enable-background:accumulate;stop-color:#000000;stop-opacity:1"
         d="m 4.0006927,8.1485799e-4 c -0.6,0 -1.0006019,0.39859260201 -1.0006019,0.99859260201 V 23.000592 c 0,0.6 0.4006019,0.998593 1.0006019,0.998593 H 13.343662 A 5.9999997,5.9999997 0 0 1 13.000081,21.999991 H 4.9992853 V 2.0000093 h 8.6015587 l 5.39883,5.4008388 v 8.5995499 a 5.9999997,5.9999997 0 0 1 2.001204,0.34358 V 6.999 c 0,-0.3 -0.101386,-0.4992157 -0.301386,-0.6992157 L 14.699899,0.30019171 c -0.2,-0.2 -0.399216,-0.29937685201 -0.699216,-0.29937685201 z"
         transform="matrix(0.97207122,0,0,0.97207122,4.6735418,4.3351454)" /><path
         d="M 20,8 H 14 C 13.4,8 13,7.6 13,7 V 1 h 2 v 5 h 5 z"
         id="path2"
         transform="matrix(0.97207122,0,0,0.97207122,4.6735418,4.3351454)"
         style="display:inline" /><path
         id="circle6"
         style="display:inline;fill:#ffffff;fill-opacity:1;stroke:none;stroke-width:1.62369;stroke-linecap:round;stroke-linejoin:round;stroke-dasharray:none;stroke-opacity:1;paint-order:stroke markers fill"
         d="m 23.142578,19.619141 a 6.1018109,6.1018109 0 0 0 -6.101562,6.101562 6.1018109,6.1018109 0 0 0 6.101562,6.101563 6.1018109,6.1018109 0 0 0 6.101563,-6.101563 6.1018109,6.1018109 0 0 0 -6.101563,-6.101562 z m -0.564453,2.714843 h 1.130859 v 2.822266 h 2.822266 v 1.128906 h -2.822266 v 2.822266 H 22.578125 V 26.285156 H 19.755859 V 25.15625 h 2.822266 z" /><path
         id="circle1"
         style="display:inline;fill:#ffffff;fill-opacity:1;stroke:#000000;stroke-width:1.31604;stroke-linecap:round;stroke-linejoin:round;stroke-dasharray:none;stroke-opacity:1;paint-order:stroke markers fill"
         d="m 23.142578,20.775391 c -2.73114,1.95e-4 -4.945117,2.214172 -4.945312,4.945312 1.95e-4,2.73114 2.214172,4.945118 4.945312,4.945313 2.73114,-1.95e-4 4.945118,-2.214173 4.945313,-4.945313 -1.95e-4,-2.73114 -2.214173,-4.945117 -4.945313,-4.945312 z"
         sodipodi:nodetypes="ccccc" /><path
         id="rect8"
         style="display:inline;fill:#000000;fill-opacity:1;stroke:none;stroke-width:0.699327;stroke-linecap:round;stroke-linejoin:round;stroke-dasharray:none;stroke-opacity:1;paint-order:stroke markers fill"
         d="m 23.734111,23.884933 c -0.144314,0 -0.2886,0.05542 -0.39918,0.165995 -0.221161,0.221161 -0.22116,0.577201 0,0.798361 l 0.30696,0.30696 H 21.32454 c -0.312769,0 -0.565176,0.252408 -0.565176,0.565175 0,0.312769 0.252407,0.563858 0.565176,0.563858 h 2.317351 l -0.30696,0.306961 c -0.22116,0.22116 -0.22116,0.5772 0,0.79836 0.22116,0.22116 0.5772,0.22116 0.79836,0 l 1.225206,-1.225206 c 0.116298,-0.116298 0.171954,-0.269833 0.165996,-0.421576 2.87e-4,-0.0074 0.0013,-0.01489 0.0013,-0.02239 0,-0.0077 -0.001,-0.01609 -0.0013,-0.02372 0.0061,-0.151818 -0.04955,-0.305129 -0.165996,-0.421577 l -1.225206,-1.225205 c -0.11058,-0.110581 -0.254867,-0.165996 -0.39918,-0.165996 z" /></g></g></svg>
