<?xml version="1.0" encoding="UTF-8" standalone="no"?>
<!-- Created with Inkscape (http://www.inkscape.org/) -->

<svg
   width="32"
   height="32"
   viewBox="0 0 32 32"
   version="1.1"
   id="svg1"
   xml:space="preserve"
   inkscape:version="1.4.2 (f4327f4, 2025-05-13)"
   sodipodi:docname="icone_reload.svg"
   xmlns:inkscape="http://www.inkscape.org/namespaces/inkscape"
   xmlns:sodipodi="http://sodipodi.sourceforge.net/DTD/sodipodi-0.dtd"
   xmlns:xlink="http://www.w3.org/1999/xlink"
   xmlns="http://www.w3.org/2000/svg"
   xmlns:svg="http://www.w3.org/2000/svg"><sodipodi:namedview
     id="namedview1"
     pagecolor="#505050"
     bordercolor="#eeeeee"
     borderopacity="1"
     inkscape:showpageshadow="0"
     inkscape:pageopacity="0"
     inkscape:pagecheckerboard="0"
     inkscape:deskcolor="#505050"
     inkscape:document-units="px"
     inkscape:zoom="12.84375"
     inkscape:cx="16.038929"
     inkscape:cy="13.313869"
     inkscape:window-width="1920"
     inkscape:window-height="1017"
     inkscape:window-x="1432"
     inkscape:window-y="-8"
     inkscape:window-maximized="1"
     inkscape:current-layer="layer1" /><defs
     id="defs1"><linearGradient
       id="linearGradient2"
       inkscape:collect="always"><stop
         style="stop-color:#f9a7f9;stop-opacity:1;"
         offset="0.33499172"
         id="stop2" /><stop
         style="stop-color:#f721ec;stop-opacity:1;"
         offset="0.62935323"
         id="stop4" /><stop
         style="stop-color:#b804b3;stop-opacity:1;"
         offset="0.76948589"
         id="stop3" /></linearGradient><linearGradient
       inkscape:collect="always"
       xlink:href="#linearGradient2"
       id="linearGradient3"
       x1="16"
       y1="6.1651645"
       x2="16"
       y2="25.834835"
       gradientUnits="userSpaceOnUse"
       gradientTransform="translate(8.8e-7)" /></defs><g
     inkscape:label="Layer 1"
     inkscape:groupmode="layer"
     id="layer1"><circle
       style="fill:url(#linearGradient3);stroke:none;stroke-width:0.770396;stroke-linecap:round;stroke-linejoin:round"
       id="path2"
       cx="16"
       cy="16"
       r="9.834836" /><path
       d="M 256,48 C 141.31,48 48,141.31 48,256 48,370.69 141.31,464 256,464 370.69,464 464,370.69 464,256 464,141.31 370.69,48 256,48 Z m 120,182.15 a 8.62,8.62 0 0 1 -8.62,8.62 h -59.54 a 8.61,8.61 0 0 1 -6.09,-14.71 l 22.17,-22.17 -5.6,-6.51 a 87.38,87.38 0 1 0 -62.94,148 87.55,87.55 0 0 0 82.42,-58.25 16.01475,16.01475 0 1 1 30.2,10.67 119.4,119.4 0 1 1 -112.62,-159.18 118.34,118.34 0 0 1 86.36,36.95 l 0.56,0.62 4.31,5 14.68,-14.68 a 8.44,8.44 0 0 1 6,-2.54 8.61,8.61 0 0 1 8.68,8.63 z"
       id="path1"
       style="fill:#000000;stroke:#ffffff;stroke-opacity:1;stroke-width:11.73758263;stroke-dasharray:none"
       transform="matrix(0.06517526,0,0,0.06517526,-0.68486568,-0.68486568)" /></g></svg>
