<?xml version="1.0" encoding="UTF-8" standalone="no"?>
<!-- Created with Inkscape (http://www.inkscape.org/) -->

<svg
   width="32"
   height="32"
   viewBox="0 0 32 32"
   version="1.1"
   id="svg1"
   xml:space="preserve"
   inkscape:version="1.4.2 (f4327f4, 2025-05-13)"
   sodipodi:docname="icone_editar.svg"
   xmlns:inkscape="http://www.inkscape.org/namespaces/inkscape"
   xmlns:sodipodi="http://sodipodi.sourceforge.net/DTD/sodipodi-0.dtd"
   xmlns:xlink="http://www.w3.org/1999/xlink"
   xmlns="http://www.w3.org/2000/svg"
   xmlns:svg="http://www.w3.org/2000/svg"><sodipodi:namedview
     id="namedview1"
     pagecolor="#505050"
     bordercolor="#eeeeee"
     borderopacity="1"
     inkscape:showpageshadow="0"
     inkscape:pageopacity="0"
     inkscape:pagecheckerboard="0"
     inkscape:deskcolor="#505050"
     inkscape:document-units="px"
     inkscape:zoom="12.84375"
     inkscape:cx="19.659367"
     inkscape:cy="15.649635"
     inkscape:window-width="1920"
     inkscape:window-height="1017"
     inkscape:window-x="1432"
     inkscape:window-y="-8"
     inkscape:window-maximized="1"
     inkscape:current-layer="layer1" /><defs
     id="defs1"><linearGradient
       id="linearGradient1"
       inkscape:collect="always"><stop
         style="stop-color:#cc7300;stop-opacity:1;"
         offset="0"
         id="stop2" /><stop
         style="stop-color:#f3b30b;stop-opacity:1;"
         offset="0.5"
         id="stop3" /><stop
         style="stop-color:#f3d965;stop-opacity:1;"
         offset="0.89054728"
         id="stop1" /></linearGradient><linearGradient
       inkscape:collect="always"
       xlink:href="#linearGradient1"
       id="linearGradient2"
       x1="12.073221"
       y1="21.370699"
       x2="12.073221"
       y2="2.4811306"
       gradientUnits="userSpaceOnUse" /></defs><g
     inkscape:label="Layer 1"
     inkscape:groupmode="layer"
     id="layer1"><path
       fill-rule="evenodd"
       clip-rule="evenodd"
       d="m 3.99,16.854 -1.314,3.504 a 0.75,0.75 0 0 0 0.966,0.965 L 7.145,20.009 A 3,3 0 0 0 8.213,19.322 L 18.36,9.175 c 0,0 -0.354,-1.061 -1.414,-2.122 -1.06,-1.06 -2.122,-1.414 -2.122,-1.414 L 4.677,15.786 A 3,3 0 0 0 3.99,16.854 Z M 16.239,4.224 17.622,2.841 c 0.248,-0.248 0.579,-0.406 0.925,-0.348 0.487,0.08 1.232,0.322 1.934,1.025 0.703,0.703 0.945,1.447 1.025,1.934 0.058,0.346 -0.1,0.677 -0.348,0.925 L 19.774,7.76 c 0,0 -0.353,-1.06 -1.414,-2.12 C 17.3,4.578 16.239,4.225 16.239,4.225 Z"
       fill="#000000"
       id="path1"
       style="fill:url(#linearGradient2);fill-opacity:1;stroke:#ffffff;stroke-opacity:1;stroke-width:0.65191847;stroke-dasharray:none;paint-order:normal;stroke-linecap:round;stroke-linejoin:round"
       transform="matrix(1.1504506,0,0,1.1504506,2.1103555,2.2798229)" /></g></svg>
